<svg aria-hidden="true" style="position: absolute; width: 0; height: 0; overflow: hidden;" version="1.1" xmlns="http://www.w3.org/2000/svg" xmlns:xlink="http://www.w3.org/1999/xlink">
<defs>

<symbol id="icon-telegram" viewBox="4 4 25 25">
<path d="M16 5.12c6.009 0 10.88 4.871 10.88 10.88s-4.871 10.88-10.88 10.88-10.88-4.871-10.88-10.88 4.871-10.88 10.88-10.88zM19.753 20.435c0.2-0.614 1.138-6.733 1.253-7.939 0.035-0.365-0.081-0.608-0.306-0.716-0.273-0.131-0.678-0.066-1.148 0.104-0.644 0.232-8.881 3.729-9.357 3.932-0.451 0.192-0.878 0.401-0.878 0.704 0 0.213 0.127 0.333 0.475 0.457 0.362 0.129 1.275 0.406 1.814 0.554 0.519 0.143 1.11 0.019 1.441-0.187 0.351-0.218 4.402-2.929 4.692-3.166s0.522 0.067 0.285 0.305c-0.237 0.237-3.018 2.936-3.385 3.31-0.445 0.454-0.129 0.924 0.17 1.112 0.341 0.215 2.794 1.86 3.164 2.124s0.744 0.383 1.087 0.383c0.343-0.001 0.523-0.453 0.694-0.977z"></path>
</symbol>

<symbol id="icon-tel" viewBox="-5 -5 35 35">
<path d="M22 16.92v3a2 2 0 0 1-2.18 2 19.79 19.79 0 0 1-8.63-3.07 19.5 19.5 0 0 1-6-6 19.79 19.79 0 0 1-3.07-8.67A2 2 0 0 1 4.11 2h3a2 2 0 0 1 2 1.72 12.84 12.84 0 0 0 .7 2.81 2 2 0 0 1-.45 2.11L8.09 9.91a16 16 0 0 0 6 6l1.27-1.27a2 2 0 0 1 2.11-.45 12.84 12.84 0 0 0 2.81.7A2 2 0 0 1 22 16.92z"></path>
 </symbol>
<symbol id="icon-mail" viewBox="-1 -1 35 35">
<path d="M16 0.64c-8.483 0-15.36 6.877-15.36 15.36s6.877 15.36 15.36 15.36 15.36-6.877 15.36-15.36-6.877-15.36-15.36-15.36zM9.97 11.2h12.032c0.638 0 0.309 0.819-0.038 1.029-0.347 0.208-5.152 3.115-5.333 3.222s-0.411 0.16-0.645 0.16c-0.008 0-0.017 0-0.026 0-0.227 0-0.439-0.059-0.624-0.164l0.006 0.003-5.334-3.222c-0.347-0.21-0.675-1.029-0.038-1.029zM22.4 20c0 0.336-0.403 0.8-0.71 0.8h-11.379c-0.307 0-0.71-0.464-0.71-0.8v-5.835c0-0.147-0.003-0.338 0.275-0.176l5.467 3.224c0.164 0.102 0.363 0.162 0.576 0.162 0.024 0 0.047-0.001 0.071-0.002l-0.003 0c0.234 0 0.403-0.018 0.645-0.16l5.494-3.222c0.278-0.163 0.275 0.029 0.275 0.176v5.834z"></path>
</symbol>

<symbol id="icon-github" viewBox="0 0 32 32">
<path d="M14.533 2.8c-6.133 0.667-11.067 5.6-11.733 11.6-0.667 6.267 2.933 11.867 8.4 14 0.4 0.133 0.8-0.133 0.8-0.667v-2.133c0 0-0.533 0.133-1.2 0.133-1.867 0-2.667-1.6-2.8-2.533-0.133-0.533-0.4-0.933-0.8-1.333-0.4-0.133-0.533-0.133-0.533-0.267 0-0.267 0.4-0.267 0.533-0.267 0.8 0 1.467 0.933 1.733 1.333 0.667 1.067 1.467 1.333 1.867 1.333 0.533 0 0.933-0.133 1.2-0.267 0.133-0.933 0.533-1.867 1.333-2.4-3.067-0.667-5.333-2.4-5.333-5.333 0-1.467 0.667-2.933 1.6-4-0.133-0.267-0.267-0.933-0.267-1.867 0-0.533 0-1.333 0.4-2.133 0 0 1.867 0 3.733 1.733 0.667-0.267 1.6-0.4 2.533-0.4s1.867 0.133 2.667 0.4c1.733-1.733 3.733-1.733 3.733-1.733 0.267 0.8 0.267 1.6 0.267 2.133 0 1.067-0.133 1.6-0.267 1.867 0.933 1.067 1.6 2.4 1.6 4 0 2.933-2.267 4.667-5.333 5.333 0.8 0.667 1.333 1.867 1.333 3.067v3.467c0 0.4 0.4 0.8 0.933 0.667 4.933-2 8.4-6.8 8.4-12.4 0-8-6.8-14.267-14.8-13.333z"></path>
</symbol>

<symbol id="icon-linkedin" viewBox="0 0 32 32">
<path d="M16 3.2c-7.069 0-12.8 5.731-12.8 12.8s5.731 12.8 12.8 12.8 12.8-5.731 12.8-12.8c0-7.069-5.731-12.8-12.8-12.8zM11.196 8.963c0.898 0 1.497 0.598 1.497 1.396s-0.598 1.396-1.596 1.396c-0.898 0.001-1.497-0.598-1.497-1.396s0.598-1.396 1.596-1.396zM12.8 21.333h-3.2v-8.533h3.2v8.533zM23.467 21.333h-3.012v-4.663c0-1.29-0.803-1.587-1.104-1.587s-1.306 0.198-1.306 1.587c0 0.198 0 4.663 0 4.663h-3.111v-8.533h3.113v1.19c0.401-0.694 1.204-1.19 2.71-1.19s2.71 1.19 2.71 3.87v4.663z"></path>
</symbol>

</defs>
</svg>
